<?xml version="1.0" encoding="UTF-8"?>
<svg id="Layer_1" xmlns="http://www.w3.org/2000/svg" version="1.1" viewBox="0 0 1972.09 230">
  <!-- Generator: Adobe Illustrator 29.4.0, SVG Export Plug-In . SVG Version: 2.1.0 Build 152)  -->
  <defs>
    <style>
      .st0 {
        display: none;
        fill: #fff;
      }
    </style>
  </defs>
  <rect class="st0" width="1000" height="230"/>
  <path d="M65.49,120.34c0-7.52,1.43-14.61,4.3-21.28s6.77-12.48,11.7-17.41c4.93-4.93,10.71-8.83,17.33-11.7,4.08-1.76,8.33-2.99,12.75-3.66v17.36c-2.1.49-4.14,1.16-6.13,2.02-4.56,1.97-8.53,4.65-11.91,8.03-3.38,3.38-6.06,7.35-8.03,11.91s-2.96,9.46-2.96,14.73.99,10.03,2.96,14.59c1.97,4.55,4.65,8.53,8.03,11.91s7.35,6.06,11.91,8.03c1.98.86,4.03,1.53,6.13,2.02v17.36c-4.42-.68-8.67-1.9-12.75-3.66-6.62-2.87-12.4-6.77-17.33-11.7s-8.83-10.71-11.7-17.34c-2.87-6.62-4.3-13.7-4.3-21.21ZM251.11,102.03v70.61h17.05v-12.12c0-1.12.02-2.55.07-4.29.05-1.74.19-3.52.42-5.36s.59-3.6,1.06-5.29c.47-1.69,1.13-3.15,1.97-4.37,1.41-1.88,2.94-3.47,4.58-4.79,1.64-1.32,3.41-2.49,5.29-3.52l28.19,39.75h21l-32.84-46.37c2.26-.85,4.49-1.86,6.69-3.03,2.21-1.17,4.3-2.6,6.27-4.3,1.97-1.69,3.74-3.71,5.29-6.06,1.55-2.35,2.7-5.12,3.45-8.32,1.03-4.51,1.13-8.85.28-13.04-.85-4.18-2.49-7.91-4.93-11.2-.94-1.22-2.14-2.51-3.6-3.88-1.46-1.36-3.2-2.63-5.21-3.8-2.02-1.17-4.42-2.19-7.19-3.03s-5.9-1.41-9.37-1.69h-38.48v17.05h37.63c6.01.47,10.15,2.25,12.4,5.36,1.22,1.6,1.86,3.31,1.9,5.14s-.12,3.45-.49,4.86c-.38,1.5-.92,2.77-1.62,3.8-.7,1.04-1.64,1.98-2.82,2.82-1.18.85-2.68,1.65-4.51,2.4-1.83.75-4.07,1.6-6.69,2.53-2.92,1.04-5.97,2.24-9.16,3.6-3.2,1.37-6.39,3.17-9.59,5.43v.7-19.59h-17.05,0ZM473.23,155.72c-2.16,4.89-5.38,8.81-9.65,11.77-4.28,2.96-9.33,4.67-15.15,5.14h-43.13v-70.61h17.05v19.72c1.22-1.03,2.35-1.97,3.38-2.82,1.03-.84,2.06-1.66,3.1-2.47,1.04-.79,2.21-1.53,3.52-2.18,1.32-.66,2.87-1.37,4.65-2.11,3.85-1.5,6.77-3.06,8.74-4.65,1.97-1.6,3.43-3.8,4.37-6.62.28-.85.47-1.81.56-2.89s.07-2.19-.07-3.31c-.14-1.13-.38-2.23-.7-3.31-.33-1.08-.78-2-1.34-2.75-.75-1.03-1.49-1.54-3.03-2.42-1.78-1.01-3.92-1.25-6.55-1.25h-33.69v-16.91h33.69c4.88,0,9.3.99,13.25,2.96,3.94,1.98,7.28,4.8,10.01,8.46,2.72,3.76,4.44,7.87,5.14,12.33.7,4.47.35,8.86-1.06,13.18-1.22,3.76-2.92,6.9-5.08,9.44.47.66,1.15,1.5,2.05,2.54.89,1.04,1.76,2.07,2.61,3.1,1.03,1.22,2.06,2.49,3.1,3.8,3.57,4.61,5.73,9.8,6.49,15.58.75,5.78,0,11.2-2.26,16.28h0ZM458.64,141.42c-.42-2.68-1.43-5.05-3.03-7.12-1.6-1.98-3.05-3.76-4.37-5.36-1.32-1.6-2.54-3.05-3.66-4.37-.47.29-.99.55-1.55.78-.56.24-1.13.5-1.69.78-3.38,1.6-6.65,3.38-9.79,5.36-3.15,1.97-5.99,4.88-8.53,8.74-1.13,1.88-1.88,4.28-2.25,7.19-.38,2.91-.61,5.64-.7,8.17h24.24c5.16-.56,8.64-2.82,10.43-6.76,1.04-2.26,1.34-4.72.92-7.4h-.02ZM570.06,172.63v-104.58h-17.06v104.58h17.06ZM716.7,68.05h-71.18v16.91h27.06v87.67h17.06v-87.67h27.06v-16.91ZM828.52,125.19l21.6,47.44h18.04l-30.31-67.69-9.33,20.25h0ZM999.04,172.63v-17.06h-42.66v-87.52h-17.05v104.58h59.71,0ZM828.58,84.24l-9.33-20.84-48.91,109.23h18.04s40.2-88.39,40.2-88.39ZM128.63,83.66c2.11.48,4.15,1.16,6.13,2.01,4.56,1.97,8.53,4.65,11.91,8.03s6.06,7.35,8.03,11.91,2.96,9.46,2.96,14.73-.99,10.03-2.96,14.59c-1.97,4.55-4.65,8.53-8.03,11.91s-7.35,6.06-11.91,8.03c-1.98.86-4.02,1.53-6.13,2.01v17.35c4.39-.68,8.61-1.89,12.68-3.64,6.67-2.87,12.47-6.77,17.41-11.7,4.93-4.93,8.83-10.71,11.7-17.34,2.87-6.62,4.3-13.7,4.3-21.21s-1.43-14.61-4.3-21.28c-2.87-6.67-6.77-12.48-11.7-17.41-4.93-4.93-10.73-8.83-17.41-11.7-4.07-1.75-8.3-2.96-12.68-3.64,0,0,0,17.35,0,17.35ZM176.31,67.91c-3.46,0-6.27,2.81-6.27,6.27s2.81,6.27,6.27,6.27,6.27-2.81,6.27-6.27-2.81-6.27-6.27-6.27ZM1160.52,162.25c1.24-.95,2.51-2.17,3.79-3.65,1.29-1.48,2.48-3.2,3.58-5.15,1.1-1.96,2-4.2,2.72-6.73s1.07-5.37,1.07-8.52c0-3.91-.53-7.52-1.57-10.81-1.05-3.29-2.79-6.37-5.23-9.23s-5.63-5.61-9.59-8.23c-3.96-2.62-8.9-5.27-14.82-7.95-3.91-1.81-6.92-3.48-9.02-5.01s-3.63-2.93-4.58-4.22c-.96-1.29-1.5-2.38-1.65-3.29-.14-.91-.21-1.65-.21-2.22,0-3.44.81-5.87,2.43-7.3,2.29-2.38,5.39-3.58,9.31-3.58,1.72,0,3.32.34,4.8,1,1.48.67,2.79,1.55,3.94,2.65,1.15,1.1,2.03,2.39,2.65,3.87s.93,3.08.93,4.8h17.61c0-4.1-.79-7.97-2.36-11.6s-3.7-6.8-6.37-9.52c-2.67-2.72-5.85-4.87-9.52-6.44-3.68-1.57-7.57-2.36-11.67-2.36s-8.35.79-12.17,2.36c-3.82,1.57-7.11,3.79-9.88,6.66-2.67,2.67-4.68,5.73-6.01,9.16-1.34,3.44-1.96,7.02-1.86,10.74.09,4.2,1.02,7.92,2.79,11.17s3.96,6.06,6.59,8.45c2.62,2.39,5.49,4.44,8.59,6.16,3.1,1.72,6.08,3.2,8.95,4.44,4.96,2.1,8.78,4.2,11.45,6.3,2.67,2.1,4.6,4.06,5.8,5.87,1.19,1.81,1.86,3.44,2,4.87s.21,2.53.21,3.29c0,2.86-.57,5.2-1.72,7.01s-2.55,3.22-4.22,4.22c-1.67,1-3.44,1.7-5.3,2.08-1.86.38-3.56.57-5.08.57-2.29,0-4.42-.43-6.37-1.29-1.96-.86-3.65-2.03-5.08-3.51-1.43-1.48-2.58-3.24-3.44-5.3-.86-2.05-1.29-4.27-1.29-6.66h-17.61c0,4.58.83,8.95,2.51,13.1,1.67,4.15,4.08,7.85,7.23,11.1,3.15,3.34,6.8,5.87,10.95,7.59,4.15,1.72,8.52,2.58,13.1,2.58,9.64,0,17.51-2.48,23.62-7.44v-.03h0ZM1286.65,61.17h-72.3v15.89h27.49v90.34h17.32v-90.34h27.49v-15.89h0ZM1388.54,166.76c4.49-1.95,8.42-4.6,11.76-7.95,3.35-3.34,6-7.25,7.96-11.74s2.94-9.31,2.94-14.46V61.17h-17.32v71.33c0,2.76-.53,5.36-1.57,7.79-1.05,2.43-2.46,4.53-4.22,6.29-1.77,1.76-3.87,3.17-6.3,4.22s-4.99,1.57-7.66,1.57-5.35-.52-7.73-1.57c-2.39-1.05-4.49-2.45-6.3-4.22-1.81-1.76-3.22-3.86-4.22-6.29s-1.5-5.03-1.5-7.79V61.17h-17.32v71.44c0,5.15.98,9.97,2.94,14.46s4.61,8.4,7.96,11.74c3.35,3.34,7.27,5.99,11.76,7.95,4.49,1.96,9.32,2.94,14.49,2.94s9.85-.98,14.34-2.94h0ZM1494.09,167.4c1.91,0,4.03-.14,6.37-.43s4.8-.74,7.37-1.36c2.58-.62,5.23-1.48,7.95-2.58s5.37-2.46,7.95-4.08c2.48-1.53,5.01-3.53,7.59-6.01s4.89-5.53,6.94-9.16c2.05-3.63,3.74-7.87,5.08-12.74,1.34-4.87,2-10.5,2-16.89s-.67-12.03-2-16.89c-1.34-4.87-3.03-9.09-5.08-12.67-2.05-3.58-4.37-6.59-6.94-9.02-2.58-2.43-5.11-4.41-7.59-5.94-5.25-3.34-10.52-5.56-15.82-6.66-5.3-1.1-9.9-1.69-13.82-1.79h-22.05v106.23h22.05ZM1489.65,78.5h4.01c3.91.1,7.9.64,11.95,1.64,4.06,1,7.75,2.83,11.1,5.5,3.34,2.67,6.06,6.29,8.16,10.86s3.15,10.43,3.15,17.57-1.05,13.14-3.15,17.72c-2.1,4.57-4.82,8.19-8.16,10.86-3.34,2.67-7.04,4.53-11.1,5.57-4.06,1.05-8.04,1.62-11.95,1.71-.1,0-.41.02-.93.07-.53.05-1.65.07-3.36.07v-71.58h.29-.01ZM1615.78,167.4V61.17h-17.32v106.23h17.32ZM1744.41,165.33c6.73-2.91,12.6-6.87,17.61-11.88,5.01-5.01,8.97-10.9,11.88-17.68,2.91-6.78,4.37-13.98,4.37-21.62s-1.46-14.82-4.37-21.55c-2.91-6.73-6.87-12.6-11.88-17.61s-10.88-8.97-17.61-11.88-13.91-4.37-21.55-4.37-14.84,1.46-21.62,4.37-12.67,6.87-17.68,11.88-8.97,10.88-11.88,17.61-4.37,13.91-4.37,21.55,1.46,14.84,4.37,21.62,6.87,12.67,11.88,17.68,10.9,8.97,17.68,11.88,13.98,4.37,21.62,4.37,14.82-1.46,21.55-4.37h0ZM1737.68,79.07c4.63,2,8.66,4.72,12.1,8.16,3.44,3.44,6.16,7.47,8.16,12.1s3.01,9.57,3.01,14.82-1,10.33-3.01,14.96c-2,4.63-4.72,8.66-8.16,12.1-3.44,3.44-7.47,6.16-12.1,8.16s-9.57,3.01-14.82,3.01-10.33-1-14.96-3.01c-4.63-2-8.66-4.72-12.1-8.16s-6.16-7.47-8.16-12.1c-2-4.63-3.01-9.61-3.01-14.96s1-10.19,3.01-14.82c2-4.63,4.72-8.66,8.16-12.1,3.44-3.44,7.47-6.16,12.1-8.16s9.61-3.01,14.96-3.01,10.19,1,14.82,3.01ZM1887.5,162.25c1.24-.95,2.51-2.17,3.79-3.65,1.29-1.48,2.48-3.2,3.58-5.15,1.1-1.96,2-4.2,2.72-6.73s1.07-5.37,1.07-8.52c0-3.91-.53-7.52-1.57-10.81-1.05-3.29-2.79-6.37-5.23-9.23-2.43-2.86-5.63-5.61-9.59-8.23-3.96-2.62-8.9-5.27-14.82-7.95-3.91-1.81-6.92-3.48-9.02-5.01s-3.63-2.93-4.58-4.22c-.96-1.29-1.5-2.38-1.65-3.29-.14-.91-.21-1.65-.21-2.22,0-3.44.81-5.87,2.43-7.3,2.29-2.38,5.39-3.58,9.31-3.58,1.72,0,3.32.34,4.8,1,1.48.67,2.79,1.55,3.94,2.65,1.15,1.1,2.03,2.39,2.65,3.87s.93,3.08.93,4.8h17.61c0-4.1-.79-7.97-2.36-11.6s-3.7-6.8-6.37-9.52c-2.67-2.72-5.85-4.87-9.52-6.44-3.68-1.57-7.57-2.36-11.67-2.36s-8.35.79-12.17,2.36c-3.82,1.57-7.11,3.79-9.88,6.66-2.67,2.67-4.68,5.73-6.01,9.16-1.34,3.44-1.96,7.02-1.86,10.74.09,4.2,1.02,7.92,2.79,11.17s3.96,6.06,6.59,8.45c2.62,2.39,5.49,4.44,8.59,6.16,3.1,1.72,6.08,3.2,8.95,4.44,4.96,2.1,8.78,4.2,11.45,6.3,2.67,2.1,4.6,4.06,5.8,5.87,1.19,1.81,1.86,3.44,2,4.87s.21,2.53.21,3.29c0,2.86-.57,5.2-1.72,7.01s-2.55,3.22-4.22,4.22c-1.67,1-3.44,1.7-5.3,2.08-1.86.38-3.56.57-5.08.57-2.29,0-4.42-.43-6.37-1.29-1.96-.86-3.65-2.03-5.08-3.51-1.43-1.48-2.58-3.24-3.44-5.3-.86-2.05-1.29-4.27-1.29-6.66h-17.61c0,4.58.83,8.95,2.51,13.1,1.67,4.15,4.08,7.85,7.23,11.1,3.15,3.34,6.8,5.87,10.95,7.59,4.15,1.72,8.52,2.58,13.1,2.58,9.64,0,17.51-2.48,23.62-7.44v-.03h0Z"/>
</svg>