<?xml version="1.0" encoding="UTF-8"?>
<svg id="Layer_1" xmlns="http://www.w3.org/2000/svg" xmlns:xlink="http://www.w3.org/1999/xlink" version="1.1" viewBox="0 0 1000 560">
  <!-- Generator: Adobe Illustrator 29.4.0, SVG Export Plug-In . SVG Version: 2.1.0 Build 152)  -->
  <defs>
    <style>
      .st0 {
        display: none;
        fill: none;
      }

      .st1 {
        fill: url(#linear-gradient);
      }
    </style>
    <linearGradient id="linear-gradient" x1="500" y1="28.87" x2="500" y2="531.89" gradientUnits="userSpaceOnUse">
      <stop offset="0" stop-color="#55c9ef"/>
      <stop offset="1" stop-color="#2a7bbb"/>
    </linearGradient>
  </defs>
  <rect class="st0" y="0" width="1000" height="560"/>
  <rect class="st0" x="337.11" width="325.79" height="325.79"/>
  <path class="st1" d="M635.6,162.72c0,18.66-3.56,36.28-10.68,52.83-7.12,16.57-16.8,30.97-29.05,43.22-12.25,12.25-26.59,21.93-43.04,29.05-10.13,4.38-20.69,7.41-31.66,9.1v-43.11c5.21-1.2,10.28-2.87,15.21-5.01,11.32-4.89,21.17-11.54,29.57-19.94,8.4-8.39,15.04-18.25,19.94-29.57,4.9-11.32,7.35-23.5,7.35-36.57s-2.45-24.91-7.35-36.22c-4.9-11.3-11.54-21.17-19.94-29.57-8.4-8.39-18.26-15.05-29.57-19.94-4.93-2.14-10-3.81-15.21-5.01V28.87c10.97,1.68,21.53,4.71,31.66,9.09,16.44,7.12,30.79,16.8,43.04,29.05,12.25,12.25,21.93,26.6,29.05,43.04,7.11,16.44,10.68,34.01,10.68,52.67ZM478.82,253.79c-5.24-1.2-10.31-2.87-15.22-5-11.32-4.89-21.17-11.54-29.57-19.94-8.39-8.39-15.04-18.25-19.94-29.57-4.9-11.32-7.35-23.5-7.35-36.57s2.45-24.91,7.35-36.22c4.9-11.3,11.55-21.17,19.94-29.57,8.4-8.39,18.26-15.05,29.57-19.94,4.91-2.13,9.98-3.79,15.22-5V28.92c-10.89,1.69-21.39,4.7-31.49,9.04-16.57,7.12-30.97,16.8-43.22,29.05-12.25,12.25-21.93,26.6-29.05,43.04-7.11,16.44-10.67,34.01-10.67,52.67s3.55,36.28,10.67,52.83c7.12,16.57,16.8,30.97,29.05,43.22,12.25,12.25,26.65,21.93,43.22,29.05,10.1,4.34,20.6,7.35,31.49,9.05v-43.08ZM639.56,32.89c-8.6,0-15.56,6.97-15.56,15.56s6.97,15.56,15.56,15.56,15.56-6.97,15.56-15.56-6.97-15.56-15.56-15.56ZM37.44,439.97c2.87,6.62,6.77,12.4,11.7,17.34,4.93,4.93,10.71,8.83,17.33,11.7,4.08,1.76,8.33,2.98,12.75,3.66v-17.36c-2.1-.49-4.14-1.16-6.13-2.02-4.56-1.97-8.53-4.65-11.91-8.03-3.38-3.38-6.06-7.36-8.03-11.91-1.97-4.56-2.96-9.42-2.96-14.59s.99-10.17,2.96-14.73c1.97-4.56,4.65-8.53,8.03-11.91,3.38-3.39,7.35-6.06,11.91-8.03,1.98-.86,4.03-1.53,6.13-2.02v-17.36c-4.42.68-8.67,1.9-12.75,3.66-6.62,2.87-12.4,6.77-17.33,11.7-4.93,4.93-8.83,10.74-11.7,17.41-2.87,6.67-4.3,13.76-4.3,21.28s1.43,14.59,4.3,21.21ZM218.76,400.44v70.61s17.05,0,17.05,0v-12.12c0-1.12.02-2.55.07-4.29.05-1.74.19-3.52.42-5.36s.59-3.6,1.06-5.29c.47-1.69,1.13-3.15,1.97-4.37,1.41-1.88,2.94-3.47,4.58-4.79,1.64-1.32,3.41-2.49,5.29-3.52l28.19,39.75h21l-32.84-46.37c2.26-.85,4.49-1.86,6.69-3.03,2.21-1.17,4.3-2.6,6.27-4.3,1.97-1.69,3.74-3.71,5.29-6.06,1.55-2.35,2.7-5.12,3.45-8.32,1.03-4.51,1.13-8.85.28-13.04-.85-4.18-2.49-7.91-4.93-11.2-.94-1.22-2.14-2.51-3.6-3.88-1.46-1.36-3.2-2.63-5.21-3.8-2.02-1.17-4.42-2.19-7.19-3.03-2.77-.84-5.9-1.41-9.37-1.69h-38.48v17.05h17.05s20.58,0,20.58,0c6.01.47,10.15,2.25,12.4,5.36,1.22,1.6,1.86,3.31,1.9,5.14s-.12,3.45-.49,4.86c-.38,1.5-.92,2.77-1.62,3.8-.7,1.04-1.64,1.98-2.82,2.82-1.18.85-2.68,1.65-4.51,2.4-1.83.75-4.07,1.6-6.69,2.53-2.92,1.04-5.97,2.24-9.16,3.6-3.2,1.37-6.39,3.17-9.59,5.43v.7-19.59h-17.05ZM440.88,454.14c-2.16,4.89-5.38,8.81-9.65,11.77-4.28,2.96-9.33,4.67-15.15,5.14h-43.13v-70.61h17.05s0,19.72,0,19.72c1.22-1.03,2.35-1.97,3.38-2.82,1.03-.84,2.06-1.66,3.1-2.47,1.04-.79,2.21-1.53,3.52-2.18,1.32-.66,2.87-1.37,4.65-2.11,3.85-1.5,6.77-3.06,8.74-4.65,1.97-1.6,3.43-3.8,4.37-6.62.28-.85.47-1.81.56-2.89.09-1.08.07-2.19-.07-3.31-.14-1.13-.38-2.23-.7-3.31-.33-1.08-.78-2-1.34-2.75-.75-1.03-1.49-1.54-3.03-2.42-1.78-1.01-3.92-1.25-6.55-1.25h-33.69s0-16.91,0-16.91h33.69c4.88,0,9.3.99,13.25,2.96,3.94,1.98,7.28,4.8,10.01,8.46,2.72,3.76,4.44,7.87,5.14,12.33.7,4.47.35,8.86-1.06,13.18-1.22,3.76-2.92,6.9-5.08,9.44.47.66,1.15,1.5,2.05,2.54.89,1.04,1.76,2.07,2.61,3.1,1.03,1.22,2.06,2.49,3.1,3.8,3.57,4.61,5.73,9.8,6.49,15.58.75,5.78,0,11.2-2.26,16.28ZM426.29,439.83c-.42-2.68-1.43-5.05-3.03-7.12-1.6-1.98-3.05-3.76-4.37-5.36-1.32-1.6-2.54-3.05-3.66-4.37-.47.29-.99.55-1.55.78-.56.24-1.13.5-1.69.78-3.38,1.6-6.65,3.38-9.79,5.36-3.15,1.97-5.99,4.88-8.53,8.74-1.13,1.88-1.88,4.28-2.25,7.19-.38,2.91-.61,5.64-.7,8.17h24.24c5.16-.56,8.64-2.82,10.43-6.76,1.04-2.26,1.34-4.72.92-7.4ZM537.71,471.05v-104.58h-17.06v104.58h17.06ZM684.35,366.47h-71.18v16.91h27.06v87.67h17.06v-87.67h27.06v-16.91ZM796.17,423.61l21.6,47.44h18.04l-30.31-67.69-9.33,20.25ZM966.69,471.05v-17.06h-42.66v-87.52h-17.05v104.58h59.71ZM796.23,382.66l-9.33-20.84-48.91,109.23h18.04l40.2-88.39ZM96.28,382.08c2.11.48,4.15,1.16,6.13,2.01,4.56,1.97,8.53,4.65,11.91,8.03,3.38,3.38,6.06,7.35,8.03,11.91,1.97,4.56,2.96,9.46,2.96,14.73s-.99,10.03-2.96,14.59c-1.97,4.55-4.65,8.53-8.03,11.91-3.38,3.38-7.35,6.06-11.91,8.03-1.98.86-4.02,1.53-6.13,2.01v17.35c4.39-.68,8.61-1.89,12.68-3.64,6.67-2.87,12.47-6.77,17.41-11.7,4.93-4.93,8.83-10.71,11.7-17.34,2.87-6.62,4.3-13.7,4.3-21.21s-1.43-14.61-4.3-21.28c-2.87-6.67-6.77-12.48-11.7-17.41-4.93-4.93-10.73-8.83-17.41-11.7-4.07-1.75-8.3-2.96-12.68-3.64v17.35ZM143.96,366.33c-3.46,0-6.27,2.81-6.27,6.27s2.81,6.27,6.27,6.27,6.27-2.81,6.27-6.27-2.81-6.27-6.27-6.27ZM771.23,529.92c.33-.25.66-.58,1.01-.97.34-.39.66-.85.95-1.37.29-.52.53-1.11.72-1.78.19-.67.28-1.42.28-2.26,0-1.04-.14-1.99-.42-2.86-.28-.87-.74-1.69-1.38-2.45s-1.49-1.49-2.54-2.18c-1.05-.7-2.36-1.4-3.93-2.11-1.04-.48-1.83-.92-2.39-1.33-.56-.4-.96-.78-1.21-1.12-.25-.34-.4-.63-.44-.87-.04-.24-.06-.44-.06-.59,0-.91.21-1.56.65-1.94.61-.63,1.43-.95,2.47-.95.46,0,.88.09,1.27.27.39.18.74.41,1.04.7.3.29.54.63.7,1.02.16.39.25.82.25,1.27h4.67c0-1.09-.21-2.11-.63-3.07-.42-.96-.98-1.8-1.69-2.52-.71-.72-1.55-1.29-2.52-1.71-.97-.42-2.01-.63-3.09-.63s-2.21.21-3.23.63c-1.01.42-1.88,1.01-2.62,1.76-.71.71-1.24,1.52-1.59,2.43-.35.91-.52,1.86-.49,2.85.02,1.11.27,2.1.74,2.96.47.86,1.05,1.61,1.75,2.24.7.63,1.45,1.18,2.28,1.63.82.46,1.61.85,2.37,1.18,1.32.56,2.33,1.11,3.04,1.67.71.56,1.22,1.08,1.54,1.56.32.48.49.91.53,1.29.04.38.06.67.06.87,0,.76-.15,1.38-.46,1.86-.3.48-.68.85-1.12,1.12-.44.27-.91.45-1.4.55-.49.1-.94.15-1.35.15-.61,0-1.17-.11-1.69-.34-.52-.23-.97-.54-1.35-.93-.38-.39-.68-.86-.91-1.4-.23-.54-.34-1.13-.34-1.76h-4.67c0,1.21.22,2.37.66,3.47.44,1.1,1.08,2.08,1.92,2.94.83.89,1.8,1.56,2.9,2.01,1.1.46,2.26.68,3.47.68,2.55,0,4.64-.66,6.26-1.97ZM804.66,503.13h-19.16v4.21h7.29v23.94h4.59v-23.94h7.29v-4.21ZM831.66,531.12c1.19-.52,2.23-1.22,3.12-2.11.89-.89,1.59-1.92,2.11-3.11.52-1.19.78-2.47.78-3.83v-18.93h-4.59v18.9c0,.73-.14,1.42-.42,2.06-.28.64-.65,1.2-1.12,1.67-.47.47-1.02.84-1.67,1.12-.65.28-1.32.42-2.03.42s-1.42-.14-2.05-.42c-.63-.28-1.19-.65-1.67-1.12-.48-.47-.85-1.02-1.12-1.67-.27-.64-.4-1.33-.4-2.06v-18.9h-4.59v18.93c0,1.37.26,2.64.78,3.83.52,1.19,1.22,2.23,2.11,3.11.89.89,1.93,1.59,3.12,2.11,1.19.52,2.47.78,3.84.78s2.61-.26,3.8-.78ZM859.64,531.29c.51,0,1.07-.04,1.69-.11.62-.08,1.27-.2,1.95-.36.68-.16,1.38-.39,2.11-.68.72-.29,1.42-.65,2.11-1.08.66-.4,1.33-.94,2.01-1.59.68-.66,1.3-1.47,1.84-2.43.54-.96.99-2.09,1.35-3.38.35-1.29.53-2.78.53-4.48s-.18-3.19-.53-4.48c-.35-1.29-.8-2.41-1.35-3.36-.54-.95-1.16-1.75-1.84-2.39-.68-.65-1.35-1.17-2.01-1.57-1.39-.89-2.79-1.47-4.19-1.76-1.4-.29-2.62-.45-3.66-.47h-5.84v28.15h5.84ZM858.46,507.72h1.06c1.04.03,2.09.17,3.17.44,1.07.27,2.05.75,2.94,1.46.89.71,1.61,1.67,2.16,2.88.56,1.21.83,2.76.83,4.66s-.28,3.48-.83,4.7c-.56,1.21-1.28,2.17-2.16,2.88-.89.71-1.87,1.2-2.94,1.48-1.08.28-2.13.43-3.17.45-.03,0-.11,0-.25.02-.14.01-.44.02-.89.02v-18.97h.08ZM891.89,531.29v-28.15h-4.59v28.15h4.59ZM925.98,530.74c1.78-.77,3.34-1.82,4.67-3.15s2.38-2.89,3.15-4.69c.77-1.8,1.16-3.71,1.16-5.73s-.39-3.93-1.16-5.71c-.77-1.78-1.82-3.34-3.15-4.67s-2.88-2.38-4.67-3.15c-1.78-.77-3.69-1.16-5.71-1.16s-3.93.39-5.73,1.16c-1.8.77-3.36,1.82-4.69,3.15s-2.38,2.88-3.15,4.67c-.77,1.78-1.16,3.69-1.16,5.71s.39,3.93,1.16,5.73c.77,1.8,1.82,3.36,3.15,4.69s2.89,2.38,4.69,3.15c1.8.77,3.71,1.16,5.73,1.16s3.93-.39,5.71-1.16ZM924.2,507.87c1.23.53,2.3,1.25,3.21,2.16s1.63,1.98,2.16,3.21c.53,1.23.8,2.54.8,3.93s-.27,2.74-.8,3.97c-.53,1.23-1.25,2.3-2.16,3.21-.91.91-1.98,1.63-3.21,2.16-1.23.53-2.54.8-3.93.8s-2.74-.27-3.97-.8c-1.23-.53-2.3-1.25-3.21-2.16s-1.63-1.98-2.16-3.21c-.53-1.23-.8-2.55-.8-3.97s.27-2.7.8-3.93c.53-1.23,1.25-2.3,2.16-3.21.91-.91,1.98-1.63,3.21-2.16,1.23-.53,2.55-.8,3.97-.8s2.7.27,3.93.8ZM963.9,529.92c.33-.25.66-.58,1.01-.97.34-.39.66-.85.95-1.37.29-.52.53-1.11.72-1.78.19-.67.28-1.42.28-2.26,0-1.04-.14-1.99-.42-2.86-.28-.87-.74-1.69-1.38-2.45-.64-.76-1.49-1.49-2.54-2.18-1.05-.7-2.36-1.4-3.93-2.11-1.04-.48-1.83-.92-2.39-1.33-.56-.4-.96-.78-1.21-1.12-.25-.34-.4-.63-.44-.87-.04-.24-.06-.44-.06-.59,0-.91.21-1.56.65-1.94.61-.63,1.43-.95,2.47-.95.46,0,.88.09,1.27.27.39.18.74.41,1.04.7.3.29.54.63.7,1.02.16.39.25.82.25,1.27h4.67c0-1.09-.21-2.11-.63-3.07-.42-.96-.98-1.8-1.69-2.52-.71-.72-1.55-1.29-2.52-1.71-.97-.42-2.01-.63-3.09-.63s-2.21.21-3.23.63c-1.01.42-1.88,1.01-2.62,1.76-.71.71-1.24,1.52-1.59,2.43-.35.91-.52,1.86-.49,2.85.02,1.11.27,2.1.74,2.96.47.86,1.05,1.61,1.75,2.24.7.63,1.45,1.18,2.28,1.63.82.46,1.61.85,2.37,1.18,1.32.56,2.33,1.11,3.04,1.67.71.56,1.22,1.08,1.54,1.56.32.48.49.91.53,1.29s.06.67.06.87c0,.76-.15,1.38-.46,1.86-.3.48-.68.85-1.12,1.12-.44.27-.91.45-1.4.55-.49.1-.94.15-1.35.15-.61,0-1.17-.11-1.69-.34-.52-.23-.97-.54-1.35-.93-.38-.39-.68-.86-.91-1.4-.23-.54-.34-1.13-.34-1.76h-4.67c0,1.21.22,2.37.66,3.47.44,1.1,1.08,2.08,1.92,2.94.83.89,1.8,1.56,2.9,2.01,1.1.46,2.26.68,3.47.68,2.55,0,4.64-.66,6.26-1.97Z"/>
</svg>